<svg width="48" height="48" viewBox="0 0 48 48" fill="none" 
    xmlns="http://www.w3.org/2000/svg">
    <path d="M24 48C10.8 48 0 37.2 0 24C0 10.8 10.8 0 24 0C37.2 0 48 10.8 48 24C48 37.2 37.2 48 24 48Z" fill="#002868"/>
    <path d="M36.096 38.4H11.904C10.6368 38.4 9.59998 37.3632 9.59998 36.096V11.904C9.59998 10.6368 10.6368 9.6 11.904 9.6H36.096C37.3632 9.6 38.4 10.6368 38.4 11.904V36.096C38.4 37.3632 37.3632 38.4 36.096 38.4Z" fill="white"/>
    <path d="M15.2199 35.5008C15.1441 35.5008 15.0826 35.4317 15.0826 35.3558V31.4861C15.0826 31.4102 15.0212 31.3411 14.9454 31.3411H13.5793C13.5025 31.3411 13.4343 31.2797 13.4343 31.2038V30.456C13.4343 30.3802 13.5034 30.311 13.5793 30.311H17.7841C17.8599 30.311 17.929 30.3792 17.929 30.456V31.2038C17.929 31.2797 17.8599 31.3411 17.7841 31.3411H16.4257C16.3498 31.3411 16.2807 31.4093 16.2807 31.4861V35.3558C16.2807 35.4317 16.2193 35.5008 16.1434 35.5008H15.2199Z" fill="#002868"/>
    <path d="M22.1261 30.456C22.1261 30.3802 22.1876 30.311 22.2634 30.311H23.1793C23.2551 30.311 23.3242 30.3792 23.3242 30.456V33.097C23.3242 34.6618 22.4391 35.5699 21.0346 35.5699C19.6378 35.5699 18.7604 34.6618 18.7604 33.097V30.456C18.7604 30.3802 18.8218 30.311 18.8977 30.311H19.8135C19.8893 30.311 19.9585 30.3792 19.9585 30.456V33.1344C19.9585 33.9053 20.3549 34.4544 21.0423 34.4544C21.7297 34.4544 22.1261 33.9053 22.1261 33.1344V30.456Z" fill="#002868"/>
    <path d="M27.5301 32.0054C27.4081 32.0054 27.3697 31.9594 27.3237 31.8682C27.1633 31.4938 26.812 31.2576 26.2782 31.2576C25.7973 31.2576 25.3931 31.4256 25.3931 31.7462C25.3931 32.0976 25.7675 32.2426 26.5912 32.3414C27.843 32.4864 28.5601 32.8685 28.5601 33.8602C28.5601 34.9747 27.5829 35.5622 26.332 35.5622C25.2482 35.5622 24.317 35.0352 24.172 33.9293C24.1567 33.8227 24.2104 33.7843 24.317 33.7843H25.157C25.2635 33.7843 25.325 33.8304 25.3557 33.9139C25.4699 34.2806 25.8597 34.5629 26.4242 34.5629C26.9205 34.5629 27.3553 34.3795 27.3553 33.9907C27.3553 33.5251 26.8974 33.4416 25.9816 33.3264C24.9285 33.1891 24.196 32.8838 24.196 31.9142C24.196 30.9446 25.0283 30.2506 26.333 30.2506C27.508 30.2506 28.3249 30.8842 28.4929 31.8307C28.516 31.9373 28.4853 32.0064 28.371 32.0064H27.5301V32.0054Z" fill="#002868"/>
    <path d="M29.5979 35.5008C29.522 35.5008 29.4606 35.4317 29.4606 35.3558V30.456C29.4606 30.3802 29.522 30.311 29.5979 30.311H31.6734C33.2151 30.311 34.4132 31.3718 34.4132 32.9213C34.4132 34.4477 33.2305 35.5008 31.6734 35.5008H29.5979ZM31.6734 34.4698C32.5057 34.4698 33.1537 33.8131 33.1537 32.905C33.1537 31.9968 32.5047 31.3402 31.6657 31.3402H30.8036C30.7278 31.3402 30.6663 31.4083 30.6663 31.4851V34.3315C30.6663 34.4074 30.7278 34.4688 30.8036 34.4688H31.6734V34.4698Z" fill="#002868"/>
    <path d="M37.632 27.456H10.368C10.1568 27.456 9.98401 27.2832 9.98401 27.072V11.904C9.98401 10.848 10.848 9.984 11.904 9.984H36.096C37.152 9.984 38.016 10.848 38.016 11.904V27.072C38.016 27.2832 37.8432 27.456 37.632 27.456Z" fill="#002868"/>
    <path d="M25.4141 24.3417H22.9181C22.7597 24.3417 22.6301 24.2121 22.6301 24.0537V13.4937C22.6301 13.3353 22.7597 13.2057 22.9181 13.2057H25.4141C25.5725 13.2057 25.7021 13.3353 25.7021 13.4937V24.0537C25.7021 24.2121 25.5725 24.3417 25.4141 24.3417Z" fill="white"/>
    <path d="M29.664 16.2777H18.336C18.1776 16.2777 18.048 16.1481 18.048 15.9897V13.4937C18.048 13.3353 18.1776 13.2057 18.336 13.2057H29.664C29.8224 13.2057 29.952 13.3353 29.952 13.4937V15.9897C29.952 16.1481 29.8224 16.2777 29.664 16.2777Z" fill="white"/>
</svg>
