<svg width="48" height="48" viewBox="0 0 48 48" fill="none" 
    xmlns="http://www.w3.org/2000/svg">
    <path d="M24 48C37.3001 48 48 37.3001 48 24C48 10.6999 37.3001 0 24 0C10.6999 0 0 10.6999 0 24C0 37.3001 10.6999 48 24 48Z" fill="#2775CA"/>
    <path d="M30.6001 27.8C30.6001 24.3 28.5001 23.1 24.3001 22.6001C21.3001 22.2001 20.7001 21.4001 20.7001 20C20.7001 18.5998 21.7002 17.7001 23.7001 17.7001C25.5001 17.7001 26.5002 18.3001 27.0001 19.8001C27.1002 20.1001 27.4002 20.3 27.7001 20.3H29.3C29.7001 20.3 30.0001 20 30.0001 19.6001V19.5001C29.6 17.3 27.8 15.6001 25.5001 15.4001V13.0001C25.5001 12.6001 25.2001 12.3001 24.7002 12.2H23.2002C22.8001 12.2 22.5001 12.5 22.4 13.0001V15.3001C19.4 15.7001 17.5002 17.7001 17.5002 20.2001C17.5002 23.5001 19.5001 24.8 23.7001 25.3001C26.5002 25.8 27.4002 26.4 27.4002 28.0001C27.4002 29.6002 26 30.7001 24.1002 30.7001C21.5 30.7001 20.6 29.6 20.3 28.1C20.2002 27.7001 19.9002 27.5 19.6002 27.5H17.9C17.5002 27.5 17.2002 27.8 17.2002 28.2V28.3001C17.6 30.8 19.2001 32.6 22.5001 33.1001V35.5001C22.5001 35.9 22.8001 36.2 23.3 36.3H24.8C25.2001 36.3 25.5001 36 25.6002 35.5001V33.1001C28.6001 32.6 30.6001 30.5 30.6001 27.8Z" fill="white"/>
    <path d="M18.9 38.3C11.1 35.5002 7.09992 26.8001 10.0001 19.1C11.5001 14.8999 14.8001 11.7 18.9 10.2C19.3001 10.0001 19.5 9.70009 19.5 9.19993V7.8C19.5 7.39992 19.3001 7.09992 18.9 7.00008C18.7999 7.00008 18.6 7.00008 18.4999 7.09992C9 10.0999 3.79992 20.2001 6.79992 29.7001C8.59992 35.3 12.9 39.6001 18.4999 41.4001C18.9 41.6 19.3001 41.4001 19.3999 41C19.5 40.9002 19.5 40.8001 19.5 40.6002V39.2C19.5 38.9 19.2 38.5002 18.9 38.3ZM29.5001 7.09992C29.1 6.9 28.6999 7.09992 28.6001 7.5C28.5 7.60008 28.5 7.69992 28.5 7.90008V9.30001C28.5 9.70009 28.8 10.0999 29.1 10.3001C36.9 13.0999 40.9001 21.8 37.9999 29.5001C36.4999 33.7002 33.1999 36.9001 29.1 38.4001C28.6999 38.6 28.5 38.9 28.5 39.4002V40.8001C28.5 41.2002 28.6999 41.5002 29.1 41.6C29.2001 41.6 29.4 41.6 29.5001 41.5002C39 38.5002 44.2001 28.4 41.2001 18.9C39.4001 13.2 34.9999 8.89992 29.5001 7.09992Z" fill="white"/>
</svg>
