<svg width="48" height="42" viewBox="0 0 48 42" fill="none" 
    xmlns="http://www.w3.org/2000/svg">
    <g clip-path="url(#clip0)">
        <path fill-rule="evenodd" clip-rule="evenodd" d="M8.7888 0.205092L0.0367142 18.5889C0.00341 18.6572 -0.00714388 18.7345 0.00659594 18.8093C0.0203358 18.8841 0.0576485 18.9525 0.113078 19.0046L23.7504 41.6548C23.8175 41.7192 23.9069 41.7552 23.9999 41.7552C24.093 41.7552 24.1824 41.7192 24.2495 41.6548L47.8868 19.006C47.9422 18.9539 47.9796 18.8855 47.9933 18.8107C48.007 18.7359 47.9965 18.6586 47.9632 18.5903L39.2111 0.206506C39.1828 0.144766 39.1374 0.092464 39.0802 0.0558512C39.0231 0.0192385 38.9566 -0.000136193 38.8887 4.26257e-05H9.11405C9.04583 -0.000806085 8.97882 0.0181019 8.92111 0.0544858C8.8634 0.0908696 8.81745 0.143175 8.7888 0.205092Z" fill="#50AF95"/>
        <path fill-rule="evenodd" clip-rule="evenodd" d="M27.0369 20.4767C26.8672 20.4894 25.9904 20.5418 24.0347 20.5418C22.4791 20.5418 21.3747 20.4951 20.9872 20.4767C14.9757 20.2123 10.4887 19.1658 10.4887 17.9129C10.4887 16.6599 14.9757 15.6149 20.9872 15.3462V19.4345C21.3803 19.4628 22.506 19.5292 24.0615 19.5292C25.9282 19.5292 26.8629 19.4515 27.0312 19.4359V15.349C33.03 15.6163 37.5071 16.6628 37.5071 17.9129C37.5071 19.163 33.0314 20.2094 27.0312 20.4753L27.0369 20.4767ZM27.0369 14.9262V11.2679H35.4085V5.68909H12.6155V11.2679H20.9858V14.9248C14.1824 15.2373 9.06604 16.585 9.06604 18.1999C9.06604 19.8149 14.1824 21.1611 20.9858 21.4751V33.1983H27.0354V21.4708C33.8233 21.1583 38.9311 19.8121 38.9311 18.1985C38.9311 16.585 33.8275 15.2387 27.0354 14.9248L27.0369 14.9262Z" fill="white"/>
    </g>
    <defs>
        <clipPath id="clip0">
            <path d="M0 0H48V41.7552H0V0Z" fill="white"/>
        </clipPath>
    </defs>
</svg>
