<svg width="48" height="46" viewBox="0 0 48 46" fill="none" 
    xmlns="http://www.w3.org/2000/svg">
    <g clip-path="url(#clip0)">
        <path d="M10.9091 39.6578C12.3326 41.2794 14.0639 42.6023 16.0027 43.5497C17.9415 44.497 20.049 45.05 22.2032 45.1765C24.7768 45.0398 27.2049 43.9403 29.0053 42.0963C32.5566 39.0546 36.2851 36.2261 40.1711 33.6257L42.3529 32.7273C43.2513 32.3422 44.7914 31.4438 46.2032 29.7754C47.7433 27.7219 48 25.5401 48 24.7701C47.8293 22.3414 47.0335 19.9982 45.6898 17.9679C42.1834 24.2158 37.1582 29.4787 31.0789 33.2698C24.9996 37.061 18.0625 39.258 10.9091 39.6578Z" fill="#0293D6"/>
        <path d="M15.7861 3.20859C16.7442 2.1966 17.8983 1.39024 19.178 0.838623C20.4578 0.287008 21.8364 0.00168428 23.23 3.28459e-05C24.1129 -0.0590852 24.9988 0.0579789 25.8361 0.344414C26.6733 0.630849 27.4453 1.08093 28.107 1.66848C31.7884 4.27655 36.1734 5.70839 40.6845 5.77543C41.8396 5.90378 44.1498 6.2888 45.6899 8.21394C46.845 9.75404 46.9733 11.4225 46.9733 12.1925C46.8699 14.1757 46.4361 16.1277 45.6899 17.9679L15.7861 3.20859Z" fill="#EBE638"/>
        <path d="M10.9091 39.6577C9.75401 39.5294 8.2139 39.1443 6.41711 38.3743C4.62032 37.6042 2.4385 36.7058 1.02674 34.2673C0.128342 32.7272 0 31.1871 0 30.1604C0.0313338 27.4375 0.690111 24.7584 1.92513 22.3315C3.15387 19.3318 3.97404 16.1806 4.36364 12.9625L5.00535 10.3957C5.39037 9.11225 5.64706 7.82883 6.54545 6.5454L7.95722 5.0053C10.289 3.53927 13.0484 2.90596 15.7861 3.20851C12.1203 8.45244 9.76449 14.4985 8.91595 20.8401C8.06742 27.1818 8.75088 33.6345 10.9091 39.6577Z" fill="#BAD147"/>
        <path d="M15.7861 3.20856C15.6578 3.20856 22.7166 3.59358 27.0803 5.13369L30.6738 6.6738C29.2621 6.54546 20.2781 6.16043 13.476 12.9626C4.87703 21.6898 7.70056 33.6257 7.8289 34.2674C5.83618 31.7603 4.83164 28.6096 5.00537 25.4118C5.17433 21.1675 6.21928 17.0041 8.07456 13.1831C9.92985 9.36211 12.5554 5.96613 15.7861 3.20856Z" fill="#78B650"/>
        <path d="M32.984 34.9091C35.4121 30.4953 36.4877 25.4647 36.0769 20.4439C35.6661 15.4231 33.7871 10.6342 30.6738 6.6738C34.3914 7.29535 37.8108 9.09504 40.4278 11.8075C41.9679 13.0909 43.8931 15.016 45.6899 17.9679C43.1522 24.7086 38.7445 30.5855 32.984 34.9091Z" fill="#2F8260"/>
        <path d="M37.0909 12.3208C35.0374 8.8556 32.0855 7.31549 30.8021 6.67378C29.7754 6.4171 20.1497 4.87699 12.8342 11.9358C6.93044 17.5829 6.54541 24.8984 6.54541 26.3101C6.57258 31.1469 8.19685 35.8392 11.1657 39.6577C14.981 40.3924 18.9013 40.3924 22.7165 39.6577C24.6417 39.2727 29.1336 38.5027 32.9839 35.1658C33.4973 34.6524 39.1443 29.3904 39.5294 21.0481C39.5294 19.6364 39.5294 16.0428 37.0909 12.3208ZM32.4705 30.9305C31.2788 32.2269 29.8305 33.2615 28.2176 33.9685C26.6048 34.6755 24.8626 35.0395 23.1016 35.0374C22.3315 35.0374 17.1978 34.9091 13.6042 30.6738C13.0909 30.0321 10.524 26.9519 10.6524 22.3315C10.909 16.1711 15.7861 12.5775 16.8128 11.8075C17.7112 11.1658 19.893 9.754 23.1016 9.62565C23.8716 9.49731 26.5668 9.36897 29.262 10.9091C35.1657 14.1176 35.4224 21.8182 35.4224 22.3315C35.4224 23.7433 35.4224 27.5936 32.4705 30.9305Z" fill="#085229"/>
    </g>
    <defs>
        <clipPath id="clip0">
            <path d="M0 0H48V45.1765H0V0Z" fill="white"/>
        </clipPath>
    </defs>
</svg>
